<svg width="11" height="11" viewBox="0 0 11 11" fill="none" xmlns="http://www.w3.org/2000/svg">
<path d="M0.6875 5.5C0.6875 6.77635 1.19453 8.00043 2.09705 8.90295C2.99957 9.80547 4.22365 10.3125 5.5 10.3125C6.77635 10.3125 8.00043 9.80547 8.90295 8.90295C9.80547 8.00043 10.3125 6.77635 10.3125 5.5C10.3125 4.22365 9.80547 2.99957 8.90295 2.09705C8.00043 1.19453 6.77635 0.6875 5.5 0.6875C4.22365 0.6875 2.99957 1.19453 2.09705 2.09705C1.19453 2.99957 0.6875 4.22365 0.6875 5.5ZM11 5.5C11 6.95869 10.4205 8.35764 9.38909 9.38909C8.35764 10.4205 6.95869 11 5.5 11C4.04131 11 2.64236 10.4205 1.61091 9.38909C0.579463 8.35764 0 6.95869 0 5.5C0 4.04131 0.579463 2.64236 1.61091 1.61091C2.64236 0.579463 4.04131 0 5.5 0C6.95869 0 8.35764 0.579463 9.38909 1.61091C10.4205 2.64236 11 4.04131 11 5.5ZM5.60037 3.432C4.76712 3.432 4.27556 4.0645 4.27556 5.15212V5.88087C4.27556 6.96094 4.75887 7.5735 5.60037 7.5735C6.27344 7.5735 6.72856 7.17062 6.78906 6.59862H7.67938V6.66256C7.61063 7.65806 6.7485 8.35862 5.59625 8.35862C4.15869 8.35862 3.34881 7.44013 3.34881 5.88156V5.14387C3.34881 3.58944 4.1745 2.64275 5.59694 2.64275C6.75262 2.64275 7.61475 3.36737 7.67938 4.411V4.4715H6.78906C6.72856 3.86719 6.26106 3.432 5.60037 3.432Z" fill="#837F74"/>
</svg>