<svg width="18" height="18" viewBox="0 0 18 18" fill="none" xmlns="http://www.w3.org/2000/svg">
<path d="M2 16H4V14H2V16ZM6 16H8V14H6V16ZM10 16H12V14H10V16ZM14 16H16V14H14V16ZM2 4H4V2H2V4ZM2 8H4V6H2V8ZM2 12H4V10H2V12ZM6 4H8V2H6V4ZM6 8H8V6H6V8ZM6 12H8V10H6V12ZM10 4H12V2H10V4ZM10 8H12V6H10V8ZM10 12H12V10H10V12ZM14 4H16V2H14V4ZM14 8H16V6H14V8ZM14 12H16V10H14V12ZM2 18C1.45 18 0.979167 17.8042 0.5875 17.4125C0.195833 17.0208 0 16.55 0 16V2C0 1.45 0.195833 0.979167 0.5875 0.5875C0.979167 0.195833 1.45 0 2 0H16C16.55 0 17.0208 0.195833 17.4125 0.5875C17.8042 0.979167 18 1.45 18 2V16C18 16.55 17.8042 17.0208 17.4125 17.4125C17.0208 17.8042 16.55 18 16 18H2Z" fill="white"/>
</svg>